<?xml version="1.0" encoding="UTF-8"?>
<svg id="Layer_1" data-name="Layer 1" xmlns="http://www.w3.org/2000/svg" viewBox="0 0 2011.91 406.47">
  <defs>
    <style>
      .cls-1 {
        fill: #fff;
      }

      .cls-2 {
        fill: #aa4b4b;
      }
    </style>
  </defs>
  <rect width="2011.91" height="406.47"/>
  <g>
    <path class="cls-1" d="M646.24,141.86h60.84c36.87,0,55.31,17.21,55.31,51.62,0,20.43-7.69,35.48-23.05,45.17l22.35,59.91h-34.8l-18.2-52.54h-30.65v52.54h-31.8V141.86Zm61.3,76.97c7.22,0,12.75-2.27,16.59-6.8,3.84-4.53,5.76-10.64,5.76-18.32s-1.99-13.71-5.99-18.09c-3.99-4.38-9.6-6.57-16.82-6.57h-29.04v49.77h29.5Z"/>
    <path class="cls-1" d="M816.3,169.51v36.64h55.77v27.19h-55.77v37.57h69.6v27.65h-101.4V141.86h101.4v27.65h-69.6Z"/>
    <path class="cls-1" d="M923.46,292.57c-8.91-5.84-15.02-14.48-18.32-25.93-3.31-11.44-4.96-26.69-4.96-45.74,0-20.89,1.81-37.17,5.42-48.85,3.61-11.68,9.64-20.08,18.08-25.24,8.45-5.15,20.28-7.72,35.49-7.72,13.98,0,29.57,2.08,46.78,6.22l-.93,25.35c-15.21-2.3-27.58-3.46-37.1-3.46s-16.98,1.54-21.89,4.61c-4.92,3.08-8.34,8.11-10.25,15.1-1.92,6.99-2.88,16.86-2.88,29.61v8.53c.31,13.22,1.27,23.09,2.88,29.61,1.61,6.53,4.8,11.26,9.56,14.17,4.76,2.92,12.06,4.38,21.89,4.38,10.44,0,23.05-1.07,37.79-3.23l.69,26.04c-16.74,3.53-31.42,5.3-44.02,5.3-16.59,0-29.34-2.92-38.25-8.76Z"/>
    <path class="cls-1" d="M1106.65,270.21h-54.84l-6.22,28.34h-31.8l35.25-156.7h60.38l35.26,156.7h-31.8l-6.22-28.34Zm-21.89-102.08h-11.06l-15.91,74.43h42.86l-15.9-74.43Z"/>
    <path class="cls-1" d="M1286.62,141.86v156.7h-52.31l-39.17-129.04h-2.31v129.04h-31.8V141.86h53.69l37.79,129.05h2.31V141.86h31.8Z"/>
    <path class="cls-1" d="M1348.61,169.97h-41.94v-28.11h115.22v28.11h-41.48v128.58h-31.8V169.97Z"/>
    <path class="cls-1" d="M1469.13,169.51v36.64h55.76v27.19h-55.76v37.57h69.59v27.65h-101.39V141.86h101.39v27.65h-69.59Z"/>
    <path class="cls-1" d="M1573.75,287.73c-9.83-9.06-14.75-23.12-14.75-42.17v-103.7h31.8v104.39c0,18.28,9.29,27.42,27.88,27.42s27.88-9.14,27.88-27.42v-104.39h31.8v103.7c0,19.05-4.92,33.11-14.75,42.17-9.83,9.06-24.81,13.59-44.94,13.59s-35.11-4.53-44.94-13.59Z"/>
    <path class="cls-1" d="M1706.48,141.86h60.84c36.87,0,55.3,17.21,55.3,51.62,0,20.43-7.68,35.48-23.04,45.17l22.35,59.91h-34.79l-18.21-52.54h-30.65v52.54h-31.8V141.86Zm61.3,76.97c7.22,0,12.75-2.27,16.59-6.8,3.84-4.53,5.76-10.64,5.76-18.32s-1.99-13.71-5.99-18.09c-3.99-4.38-9.61-6.57-16.82-6.57h-29.04v49.77h29.5Z"/>
  </g>
  <g>
    <g>
      <circle class="cls-2" cx="180.27" cy="151.67" r="15.19"/>
      <circle class="cls-2" cx="462.81" cy="151.67" r="15.19"/>
      <circle class="cls-2" cx="241.46" cy="108.48" r="19.94"/>
      <circle class="cls-2" cx="321.29" cy="86.09" r="28.3"/>
      <circle class="cls-2" cx="401.37" cy="108.73" r="19.94"/>
    </g>
    <g>
      <path class="cls-2" d="M422.41,219.41c-26.73-26.73-63.06-42.25-100.87-42.25s-74.14,15.52-100.87,42.25l-32.86-32.86c35.51-35.51,83.51-55.86,133.73-55.86s98.22,20.35,133.73,55.86l-32.86,32.86Z"/>
      <path class="cls-2" d="M261.82,260.55l-32.86-32.86c50.85-50.85,134.31-50.85,185.17,0l-32.86,32.86c-32.73-32.73-86.71-32.73-119.44,0Z"/>
      <path class="cls-2" d="M321.54,301.33h0c-12.13,0-23.77-4.82-32.34-13.4l-19.47-19.47c13.84-13.84,32.24-21.46,51.81-21.46s37.97,7.62,51.81,21.46l-19.47,19.47c-8.58,8.58-20.21,13.4-32.34,13.4Z"/>
    </g>
  </g>
</svg>